# xmcd
#
# Track frame offsets: 
#        150
#        5933
#        25008
#        47337
#        67306
#        90900
#        106275
#        126811
#        142733
#        159010
#        174450
#        194730
#        212386
#
# Disc length: 3074 seconds
#
# Revision: 1
# Processed by: cddbd v1.5.2PL0 Copyright (c) Steve Scherf et al.
# Submitted via: ExactAudioCopy v1.0b1
#
DISCID=a30c000d
DTITLE=Reverse Engineering - Duck and Cover
DYEAR=2005
DGENRE=Electronic
TTITLE0=Worldwide Panic
TTITLE1=Tug Of War
TTITLE2=Brain In A Box
TTITLE3=A Toaster In The Dark
TTITLE4=Porcinet
TTITLE5=This Is Not A Test
TTITLE6=Soundsystem
TTITLE7=Earth In The Flying Caquelons
TTITLE8=Concrete Evidence
TTITLE9=Clarity
TTITLE10=Doctor Wagner
TTITLE11=Attack Of The 50ko Creatures
TTITLE12=Transistor Girl
EXTD=
EXTT0=
EXTT1=
EXTT2=
EXTT3=
EXTT4=
EXTT5=
EXTT6=
EXTT7=
EXTT8=
EXTT9=
EXTT10=
EXTT11=
EXTT12=
PLAYORDER=
